PathFileType	4	(X/Y/Z)	s05c0302.trc
DataRate	CameraRate	NumFrames	NumMarkers	Units	OrigDataRate	OrigDataStartFrame	OrigNumFrames
200	200	6	49	mm	200	1500	2000
Frame#	Time	racr			lacr			c7			jug			rlel			rdr			llel			ldr			s2			lic			ric			lasi			rasi			rpsi			lpsi			rgt			lgt			rth1			rth2			rth3			rth4			rlfc			rsh1			rsh2			rsh3			rsh4			rlmal			rmmal			rcal			rtoe			rmt5			lth1			lth2			lth4			lth3			llfc			lmfc			lsh1			lsh2			lsh3			lsh4			llmal			lmmal			lcal			ltoe			lmt5			SBIKE			LBIKE			RBIKE			
		X1	Y1	Z1	X2	Y2	Z2	X3	Y3	Z3	X4	Y4	Z4	X5	Y5	Z5	X6	Y6	Z6	X7	Y7	Z7	X8	Y8	Z8	X9	Y9	Z9	X10	Y10	Z10	X11	Y11	Z11	X12	Y12	Z12	X13	Y13	Z13	X14	Y14	Z14	X15	Y15	Z15	X16	Y16	Z16	X17	Y17	Z17	X18	Y18	Z18	X19	Y19	Z19	X20	Y20	Z20	X21	Y21	Z21	X22	Y22	Z22	X23	Y23	Z23	X24	Y24	Z24	X25	Y25	Z25	X26	Y26	Z26	X27	Y27	Z27	X28	Y28	Z28	X29	Y29	Z29	X30	Y30	Z30	X31	Y31	Z31	X32	Y32	Z32	X33	Y33	Z33	X34	Y34	Z34	X35	Y35	Z35	X36	Y36	Z36	X37	Y37	Z37	X38	Y38	Z38	X39	Y39	Z39	X40	Y40	Z40	X41	Y41	Z41	X42	Y42	Z42	X43	Y43	Z43	X44	Y44	Z44	X45	Y45	Z45	X46	Y46	Z46	X47	Y47	Z47	X48	Y48	Z48	X49	Y49	Z49	
1500	7.5000	713.057677	1239.111369	-170.913689	657.972641	1276.771949	-448.481807	681.481861	1329.950507	-313.139094	614.400499	1179.471087	-307.867335	567.795324	1073.652313	21.725322	695.367093	918.936223	-87.441457	489.341719	1057.132216	-560.806961	684.949808	921.470267	-474.140456	79.864168	1249.680639	-255.519763	224.396639	1218.330100	-405.210854	232.708907	1231.743583	-122.925095	249.921688	1153.741550	-364.535889	248.658783	1162.384431	-149.008096	129.864696	1287.259542	-218.109617	131.578595	1284.911926	-303.976451	164.220913	1129.014233	-85.507159	121.523100	1135.253005	-425.407170	256.764355	1058.526339	-79.257782	339.609127	1027.841559	-81.892917	395.191279	958.378912	-88.343841	360.067107	1055.278088	-98.433742	499.277814	856.919920	-123.460079	404.520092	810.200938	-96.272003	348.569952	741.944513	-106.477778	269.959954	709.150505	-106.651449	367.999662	719.094645	-130.393481	168.281508	627.060175	-110.831247	196.335300	640.525094	-188.642684	101.417744	664.466810	-151.578102	240.868256	404.544263	-168.464037	174.105555	475.584616	-95.361226	156.312251	994.687225	-451.680534	201.246339	921.368474	-452.049582	235.156650	929.098178	-438.059500	201.164412	830.788982	-455.978635	232.554231	693.292528	-425.389570	223.622555	675.585266	-320.210298	187.613408	575.099763	-453.653912	201.657573	489.174477	-447.157817	169.578278	406.246035	-445.350932	235.021291	487.673706	-427.996620	168.956288	291.668516	-437.772315	208.168456	317.071789	-373.373588	109.516881	269.610600	-395.149193	379.717570	153.464653	-404.651705	267.827620	162.057655	-465.899469	-170.046939	899.330073	-276.328610	-53.277608	79.238535	-474.686824	-53.270257	79.277120	-77.098166	
1501	7.5050	710.622791	1240.201294	-169.538594	656.521334	1276.802849	-447.340006	679.176610	1330.382733	-312.159343	612.487878	1179.940158	-306.512394	566.125184	1072.695507	22.080814	694.991272	919.038834	-87.619080	489.519259	1056.527845	-560.836764	684.813070	921.135650	-474.325709	77.034375	1247.862275	-258.276998	223.218487	1215.252740	-406.259386	229.465225	1232.418324	-123.346738	248.471517	1151.249431	-364.589814	245.759745	1162.818198	-149.519595	126.527015	1285.843597	-220.672397	128.791285	1282.934416	-306.760734	161.239922	1129.456182	-86.424992	119.979749	1131.761002	-427.008593	254.725771	1060.916192	-80.570034	338.334386	1031.670222	-82.771451	395.177945	963.451874	-88.460808	358.067659	1059.897146	-98.212383	502.325912	864.675628	-123.611218	408.167075	817.119203	-95.866094	353.195203	748.021698	-105.800426	274.794201	714.432483	-106.240275	372.667201	725.532879	-129.614818	173.506364	631.399808	-110.967336	201.495864	645.277269	-188.421336	105.370202	667.128656	-151.906922	252.257951	411.675184	-168.640058	183.139770	480.346420	-95.371689	153.433964	991.967484	-451.820564	197.211629	917.965320	-452.100523	231.006259	925.046708	-437.535303	195.707986	827.259503	-455.933902	224.106711	689.812694	-425.328103	214.139204	671.994055	-320.009013	178.805645	571.922379	-453.759346	192.853243	486.113693	-447.243999	160.939468	403.078832	-445.534187	226.187491	484.600517	-428.071632	160.466927	288.589630	-437.888647	199.315484	313.848700	-373.398859	100.987048	267.292026	-395.211257	370.066982	148.483786	-404.540275	258.278988	158.069534	-465.784781	-170.075762	899.316702	-276.363719	-53.268689	79.210593	-474.704461	-53.263251	79.270322	-77.095090	
1502	7.5100	708.051162	1241.357473	-168.294771	654.903611	1276.880464	-446.181548	676.766610	1330.799436	-311.191129	610.629856	1180.178377	-305.218378	563.591199	1071.008734	20.503556	694.742094	919.281543	-87.556926	489.445567	1055.923285	-560.753011	684.720597	920.841799	-474.253635	74.176947	1246.115944	-260.954005	222.184626	1212.509824	-407.052426	225.900012	1232.921575	-124.451178	246.855201	1149.064862	-364.738485	242.762117	1163.237120	-150.057053	123.280810	1284.495296	-223.451857	125.942321	1281.111360	-309.552087	158.179365	1130.111437	-87.229769	118.205262	1128.699419	-428.580322	252.587961	1063.039667	-81.308745	337.404856	1035.154126	-84.356778	395.047271	968.689862	-88.256583	356.039549	1064.148230	-98.094568	504.767753	872.731347	-120.403604	411.278113	823.700741	-94.949230	357.366617	753.722543	-105.197280	279.520647	719.171911	-105.730609	377.205536	731.504846	-128.882437	178.602651	635.009491	-111.001815	207.715786	649.523900	-188.214056	109.447080	669.005603	-151.882585	263.159294	417.446448	-169.168628	192.029293	484.389693	-95.408935	150.822694	989.747102	-452.111820	193.606750	915.163536	-451.844830	227.369241	921.852219	-436.962621	190.903417	824.522632	-455.378046	216.292754	686.584696	-425.479402	205.193622	669.097087	-319.963980	170.017585	569.433302	-453.848781	184.144414	483.581438	-447.375260	152.145213	400.555991	-445.689016	217.509268	481.979894	-428.273869	151.762471	286.134352	-437.927199	190.657603	311.384877	-373.437413	92.287165	265.526037	-395.156493	360.220297	144.183502	-404.496122	248.428286	154.717666	-465.779848	-170.221872	899.219184	-276.590435	-53.299934	79.151247	-474.719753	-53.276573	79.247734	-77.106046	
1503	7.5150	705.500142	1242.463760	-167.107722	653.150616	1276.993777	-445.177368	674.296188	1331.373555	-310.395927	608.558466	1180.726607	-303.938122	564.212600	1071.224653	23.754374	694.458556	919.492802	-87.476222	488.637453	1055.159049	-560.689804	684.306675	920.243547	-473.553265	71.237565	1244.582684	-263.338663	220.724075	1209.922219	-407.901944	222.307995	1233.149873	-125.420852	244.931505	1147.022248	-364.660113	239.919120	1163.557206	-150.551458	119.747059	1283.267287	-226.306445	123.317917	1279.394845	-312.057980	155.123989	1130.542417	-87.997451	116.180678	1126.152858	-429.982803	250.576695	1064.712716	-82.383555	335.790181	1038.627549	-84.948988	394.638739	973.594404	-87.760652	353.760120	1068.315542	-98.524733	506.690217	879.123826	-119.370326	414.245005	829.775845	-94.178169	361.359558	759.095643	-104.444224	283.992749	723.413470	-105.176687	381.362079	737.309511	-128.110772	183.462359	637.868076	-111.021364	211.162292	652.990750	-188.006515	113.292881	669.989428	-151.892577	274.725748	423.738976	-169.078042	201.469510	487.925375	-95.418253	148.528208	988.118755	-452.532475	190.287272	913.274089	-451.372244	224.099728	919.497393	-436.211271	186.726872	822.537974	-454.657224	209.305874	684.030950	-425.799606	197.248632	666.698287	-320.132277	161.913276	567.496847	-453.967129	175.634379	481.547993	-447.541186	143.295029	398.669600	-445.716912	209.171359	479.801079	-428.723621	142.965377	284.393334	-437.943755	182.116879	309.516492	-373.601655	83.380090	264.439265	-395.092871	350.104295	140.442032	-404.430395	238.378962	151.916519	-465.593887	-170.190994	899.246225	-276.451442	-53.304257	79.118522	-474.744720	-53.299068	79.243257	-77.126353	
1504	7.5200	703.018233	1243.686832	-166.102070	651.310497	1277.119423	-444.212539	671.773814	1331.950488	-309.719291	606.544860	1181.134715	-302.775654	562.653849	1070.531919	23.963894	694.328313	919.642575	-87.660337	488.211889	1054.548130	-560.577220	684.127154	920.005561	-473.514424	68.228795	1243.243755	-265.565039	219.019118	1207.749632	-408.554785	218.364830	1233.387620	-126.684034	242.880043	1145.285687	-364.649236	237.059115	1163.825821	-150.953132	116.495484	1282.352708	-228.748307	121.021043	1277.927747	-314.452576	152.039841	1130.849938	-88.679553	114.053308	1124.228977	-431.236669	248.670552	1066.698483	-83.311760	333.897512	1042.377836	-84.776915	393.998760	978.471392	-87.172675	351.521897	1072.310026	-98.526626	508.660923	886.826359	-118.704446	416.865566	835.337233	-93.400772	365.031652	763.922219	-103.687495	288.132857	727.183210	-104.530058	385.297211	742.546560	-127.452243	188.166234	640.132024	-111.013816	215.705911	655.869601	-187.758087	116.890012	670.146950	-151.828867	285.994299	428.760021	-169.316968	210.866792	490.989704	-95.410983	146.475408	987.213729	-452.864424	187.322882	912.049754	-450.541776	221.184459	918.043273	-435.449168	183.090975	821.269502	-453.490301	203.146132	682.085779	-426.279025	191.056840	664.939875	-320.339695	154.699711	566.098432	-454.173552	167.554978	480.100729	-447.612924	134.564692	397.527964	-445.600735	201.238394	478.150669	-429.161556	134.037568	283.225727	-437.807829	173.329635	308.174644	-373.514044	74.272657	263.917831	-394.868148	339.794722	137.318665	-404.317640	228.162335	149.886173	-465.453556	-170.249721	899.205667	-276.518415	-53.320853	79.092252	-474.738071	-53.326942	79.223439	-77.123672	
1505	7.5250	700.632756	1244.824980	-165.232289	649.356909	1277.281495	-443.422199	669.168097	1332.489543	-309.134824	604.407164	1181.666010	-301.691022	561.113353	1069.852970	24.123041	694.144255	919.960874	-87.957746	487.555934	1053.961191	-560.440395	683.964107	919.857205	-473.666474	65.240512	1241.944712	-267.655098	217.124131	1206.005059	-409.085738	214.274593	1233.259549	-127.776452	240.651429	1144.083989	-364.682103	235.111496	1163.997200	-149.605099	112.964295	1281.754750	-230.885109	118.296491	1276.972995	-316.538381	149.007577	1131.394464	-89.118357	111.733864	1122.995515	-432.382246	246.478843	1068.779576	-84.161517	331.973308	1045.953067	-85.329374	393.508726	982.849180	-87.323071	349.161862	1076.291836	-98.189578	510.019430	893.378072	-118.053593	419.119841	840.494193	-92.524943	368.211188	768.379485	-102.924678	291.950603	730.461267	-103.946527	389.041612	747.164697	-126.978442	192.788057	641.649578	-111.010846	219.949597	657.997996	-187.561586	120.389836	669.289555	-151.732506	297.789507	433.818995	-169.167136	220.143647	493.290042	-95.474305	144.518553	986.982683	-452.951022	184.613683	911.526578	-449.771790	218.488544	917.327291	-434.683860	179.897672	820.936162	-452.753628	197.984356	680.735103	-426.930871	186.753321	663.774965	-320.552271	148.091479	565.334506	-454.342981	160.020865	479.170210	-447.744893	126.187404	397.007176	-445.343346	193.914590	476.876226	-429.662176	124.909422	282.753580	-437.486302	164.592216	307.407858	-373.303430	65.068575	263.979045	-394.531291	329.382329	135.000345	-404.249916	217.839565	148.563580	-465.225971	-170.219907	899.218832	-276.376085	-53.347553	79.089771	-474.728850	-53.328667	79.208232	-77.108926	
